<svg width="106" height="35" viewBox="0 0 106 35" fill="none" xmlns="http://www.w3.org/2000/svg">
<path d="M4.99993 9.50007C4.99993 9.50007 115.5 40.5 51.5 12C-12.5 -16.5 55.4999 31.0001 55.4999 31.0001C55.4999 31.0001 -29 14 12 28C53 42 4.99993 9.50007 4.99993 9.50007Z" fill="#9173FF" fill-opacity="0.6"/>
<path d="M4.99993 9.50007C4.99993 9.50007 115.5 40.5 51.5 12C-12.5 -16.5 55.4999 31.0001 55.4999 31.0001C55.4999 31.0001 -29 14 12 28C53 42 4.99993 9.50007 4.99993 9.50007Z" fill="url(#paint0_linear_2_3)" fill-opacity="0.2"/>
<path d="M4.99993 9.50007C4.99993 9.50007 115.5 40.5 51.5 12C-12.5 -16.5 55.4999 31.0001 55.4999 31.0001C55.4999 31.0001 -29 14 12 28C53 42 4.99993 9.50007 4.99993 9.50007Z" fill="url(#paint1_linear_2_3)" fill-opacity="0.2"/>
<path d="M58.232 27V26.74L60.104 26.454L49.002 9.138L47.234 8.852V8.592H56.854V8.852L54.982 9.112L66.084 26.454L67.852 26.74V27H58.232ZM47.208 27V26.74L48.95 26.454L55.164 18.342L55.84 19.434H54.982L54.072 20.682C53.708 21.1673 53.448 21.644 53.292 22.112C53.136 22.5627 53.058 23.0047 53.058 23.438C53.058 24.2527 53.3353 24.9633 53.89 25.57C54.4447 26.1593 55.2073 26.5493 56.178 26.74V27H47.208ZM59.116 15.898H59.948L60.936 14.572C61.352 14.1213 61.638 13.688 61.794 13.272C61.9673 12.856 62.054 12.4573 62.054 12.076C62.054 11.556 61.9327 11.0707 61.69 10.62C61.4647 10.1693 61.144 9.788 60.728 9.476C60.312 9.164 59.818 8.956 59.246 8.852V8.592H67.852V8.852L66.474 9.112L59.766 16.912L59.116 15.898ZM68.8808 27V26.74L70.2848 26.35V9.242L68.8808 8.852V8.592H84.6888L83.7788 15.664H83.4928L81.6208 11.244C81.2742 10.4987 80.8495 9.93533 80.3468 9.554C79.8442 9.17267 79.3675 8.982 78.9168 8.982H75.4328V17.484H76.9668C77.2788 17.484 77.5735 17.3973 77.8508 17.224C78.1282 17.0507 78.3882 16.8427 78.6308 16.6C79.0122 16.2187 79.3502 15.768 79.6448 15.248C79.9568 14.728 80.1388 14.2773 80.1908 13.896H80.4508V20.552H80.1908L76.9148 17.77H75.4328V26.454L76.8628 26.74V27H68.8808ZM95.0011 8.202C96.2837 8.202 97.4797 8.39267 98.5891 8.774C99.6984 9.15533 100.669 9.736 101.501 10.516C102.333 11.296 102.983 12.2927 103.451 13.506C103.919 14.7193 104.153 16.158 104.153 17.822C104.153 19.4167 103.928 20.8207 103.477 22.034C103.026 23.23 102.385 24.2267 101.553 25.024C100.738 25.804 99.7677 26.3933 98.6411 26.792C97.5317 27.1907 96.3184 27.39 95.0011 27.39C93.6664 27.39 92.4271 27.1907 91.2831 26.792C90.1564 26.376 89.1771 25.7693 88.3451 24.972C87.5304 24.1747 86.8891 23.178 86.4211 21.982C85.9704 20.786 85.7451 19.3907 85.7451 17.796C85.7451 16.34 85.9617 15.0227 86.3951 13.844C86.8457 12.6653 87.4784 11.66 88.2931 10.828C89.1077 9.97867 90.0784 9.32867 91.2051 8.878C92.3491 8.42733 93.6144 8.202 95.0011 8.202ZM95.0011 8.488C94.3251 8.488 93.7357 8.67 93.2331 9.034C92.7304 9.38067 92.3144 9.93533 91.9851 10.698C91.6557 11.4433 91.4131 12.3967 91.2571 13.558C91.1011 14.7193 91.0231 16.106 91.0231 17.718C91.0231 19.3127 91.1011 20.708 91.2571 21.904C91.4131 23.0827 91.6557 24.0533 91.9851 24.816C92.3144 25.5613 92.7304 26.1247 93.2331 26.506C93.7357 26.87 94.3251 27.052 95.0011 27.052C95.6597 27.052 96.2317 26.8787 96.7171 26.532C97.2197 26.168 97.6271 25.6133 97.9391 24.868C98.2511 24.1053 98.4851 23.1347 98.6411 21.956C98.7971 20.7773 98.8751 19.356 98.8751 17.692C98.8751 16.0627 98.7971 14.6673 98.6411 13.506C98.4851 12.3447 98.2511 11.4 97.9391 10.672C97.6271 9.92667 97.2197 9.38067 96.7171 9.034C96.2317 8.67 95.6597 8.488 95.0011 8.488Z" fill="white"/>
<defs>
<linearGradient id="paint0_linear_2_3" x1="65.5" y1="16" x2="39" y2="29.5" gradientUnits="userSpaceOnUse">
<stop stop-opacity="0"/>
<stop offset="1"/>
</linearGradient>
<linearGradient id="paint1_linear_2_3" x1="52" y1="22.5" x2="23.5" y2="31.5" gradientUnits="userSpaceOnUse">
<stop stop-color="white" stop-opacity="0"/>
<stop offset="1"/>
</linearGradient>
</defs>
</svg>
